# xmcd
#
# Track frame offsets:
#	150
#	18769
#	34424
#	53012
#	68072
#	86307
#	105125
#	121197
#	136244
#	152927
#	166257
#	182624
#	197003
#	213222
#	233571
#	247539
#	264588
#	276516
#	292442
#	306278
#	321419
#	335055
#
# Disc length: 4662 seconds
#
# Revision: 0
# Processed by: cddbd v1.5.2PL0 Copyright (c) Steve Scherf et al.
# Submitted via: dBpowerAMP V4.0
#
DISCID=33123416
DTITLE=Various Artist - ERG Nu Country Traxx Vol. 217 CAN
DYEAR=2012
DGENRE=Country
TTITLE0=Kenny Chesney - Come Over
TTITLE1=Dean Brody - Bob Marley
TTITLE2=Rascal Flatts - Come Wake Me Up
TTITLE3=Craig Morgan - Corn Star
TTITLE4=Big and Rich - That's Why I Pray
TTITLE5=Victoria Banks - Jackson
TTITLE6=Trace Adkins - Them Lips (On Mine)
TTITLE7=Miranda Lambert - Fastest Girl In Town
TTITLE8=Casey James - Crying On A Suitcase
TTITLE9=Zac Brown Band - The Wind
TTITLE10=Miss Willie Brown - You're All That Matters To Me
TTITLE11=Due West - Thing You Can't Do In A Car
TTITLE12=Katie Armiger - Better In A Black Dress
TTITLE13=Randy Travis ft. Don Henley - More Life
TTITLE14=Jake Mathews - Red Tail Lights
TTITLE15=Heidi Newfield - Why'd You Have To Be So Good
TTITLE16=Jerry Serada - That'll Get You Drinkin'
TTITLE17=Alan Doyle - I've Seen A Little
TTITLE18=Bucky Covington - I Wanna Be That Feeling
TTITLE19=Glen Templeton - Sing That Song Again
TTITLE20=Mark Cooke - Any Way The Wind Blows
TTITLE21=Crystal Shawanda - Down On Broadway
EXTD=
EXTT0=
EXTT1=
EXTT2=
EXTT3=
EXTT4=
EXTT5=
EXTT6=
EXTT7=
EXTT8=
EXTT9=
EXTT10=
EXTT11=
EXTT12=
EXTT13=
EXTT14=
EXTT15=
EXTT16=
EXTT17=
EXTT18=
EXTT19=
EXTT20=
EXTT21=
PLAYORDER=
